<svg id="svg11224" xmlns="http://www.w3.org/2000/svg" xmlns:xlink="http://www.w3.org/1999/xlink" viewBox="0 0 448.68 183.11"><defs><style>.cls-1,.cls-30,.cls-32,.cls-33,.cls-5{fill:none;}.cls-2{opacity:0.54;filter:url(#filter5778);}.cls-2,.cls-20,.cls-21,.cls-22,.cls-9{isolation:isolate;}.cls-3{fill:#2e3436;}.cls-4{fill:url(#radial-gradient);}.cls-5,.cls-9{stroke-width:2px;}.cls-5{stroke:url(#radial-gradient-2);}.cls-6{fill:url(#linear-gradient);}.cls-7,.cls-9{fill:url(#radial-gradient-3);}.cls-8{clip-path:url(#clip-path);}.cls-9{stroke:#000;opacity:0.3;}.cls-10{fill:url(#radial-gradient-5);}.cls-11{fill:url(#radial-gradient-6);}.cls-12{fill:url(#linear-gradient-2);}.cls-13{fill:url(#linear-gradient-3);}.cls-14{fill:url(#radial-gradient-7);}.cls-15{fill:url(#radial-gradient-8);}.cls-16{fill:url(#linear-gradient-4);}.cls-17{fill:url(#linear-gradient-5);}.cls-18{fill:url(#linear-gradient-6);}.cls-19{fill:url(#linear-gradient-7);}.cls-20,.cls-21{opacity:0.87;}.cls-20{fill:url(#radial-gradient-9);}.cls-21{fill:url(#radial-gradient-10);}.cls-22{opacity:0.71;filter:url(#filter5531);}.cls-23{fill:url(#radial-gradient-11);}.cls-24{fill:url(#radial-gradient-12);}.cls-25{filter:url(#filter6435);}.cls-26{fill:url(#radial-gradient-13);}.cls-27{fill:url(#radial-gradient-14);}.cls-28{fill:url(#radial-gradient-15);}.cls-29{fill:url(#linear-gradient-8);}.cls-30{stroke:url(#radial-gradient-16);}.cls-31{fill:url(#linear-gradient-9);}.cls-32{stroke:url(#radial-gradient-17);}.cls-33{stroke:url(#radial-gradient-18);}.cls-34{fill:url(#linear-gradient-10);}.cls-35{fill:url(#linear-gradient-11);}.cls-36{fill:url(#linear-gradient-12);}.cls-37{fill:url(#linear-gradient-13);}.cls-38{fill:url(#linear-gradient-14);}.cls-39{fill:url(#linear-gradient-15);}.cls-40{fill:url(#linear-gradient-16);}</style><filter id="filter5778" name="filter5778"><feGaussianBlur result="feGaussianBlur5780" stdDeviation="2.76"/></filter><radialGradient id="radial-gradient" cx="60.37" cy="1670.61" r="106.62" gradientTransform="matrix(0.98, 0, 0, -0.29, 93.09, 645.11)" gradientUnits="userSpaceOnUse"><stop offset="0" stop-color="#f2da06"/><stop offset="0.45" stop-color="#fcee72"/><stop offset="1" stop-color="#f2da06"/></radialGradient><radialGradient id="radial-gradient-2" cx="272.47" cy="825.19" r="94.48" gradientTransform="matrix(0.75, -0.31, -0.29, -0.7, 219.64, 820.23)" gradientUnits="userSpaceOnUse"><stop offset="0" stop-color="#eeeeec"/><stop offset="1" stop-color="#eeeeec" stop-opacity="0"/></radialGradient><linearGradient id="linear-gradient" x1="84.29" y1="945.94" x2="88.04" y2="945.94" gradientTransform="matrix(1.75, 0.15, 0.18, -1.8, -104.34, 1811.5)" gradientUnits="userSpaceOnUse"><stop offset="0" stop-color="#edd60c"/><stop offset="1" stop-color="#ad9c08"/></linearGradient><radialGradient id="radial-gradient-3" cx="-25.7" cy="849.34" fy="821.9633052060842" r="93.98" gradientTransform="matrix(1.27, 0.24, 0.19, -0.98, 3.91, 923.13)" gradientUnits="userSpaceOnUse"><stop offset="0" stop-color="#e9d012"/><stop offset="0.46" stop-color="#efd840"/><stop offset="0.77" stop-color="#d2b828"/><stop offset="1" stop-color="#eacf4e"/></radialGradient><clipPath id="clip-path" transform="translate(-25.66 -8.45)"><path class="cls-1" d="M117.48,12.75A59.58,59.58,0,0,0,85,22.12s0,0,0,0C71.63,26.64,62.08,34,54.92,44.12,42.24,62,31.91,102.75,33,127.31c27.64,43.52,160,42.72,183.47,3.05-10.23-35.91-7-66.35-23.23-87.12-8.69-11.11-21.26-18.49-35-22.56l-.21-.06c-6.33-2.41-22.16-7.81-38.27-7.81-.79,0-1.58-.06-2.35-.06ZM146.1,18l1.32.21Zm-44.34.3L99,18.7Z"/></clipPath><radialGradient id="radial-gradient-5" cx="80.42" cy="873.12" r="8.5" gradientTransform="matrix(-5.02, -1.34, 1.22, -3.14, -535.15, 2946.44)" gradientUnits="userSpaceOnUse"><stop offset="0" stop-color="#f5e789"/><stop offset="1" stop-color="#eed73f" stop-opacity="0"/></radialGradient><radialGradient id="radial-gradient-6" cx="80.32" cy="872.17" r="8.5" gradientTransform="matrix(-5.02, -1.34, 1.22, -3.14, -478.14, 2939.88)" xlink:href="#radial-gradient-5"/><linearGradient id="linear-gradient-2" x1="87.74" y1="1046.36" x2="91.49" y2="1046.36" gradientTransform="matrix(-2.02, -0.02, 0.07, -1.22, 197.39, 1293.61)" xlink:href="#linear-gradient"/><linearGradient id="linear-gradient-3" x1="130.02" y1="1043.76" x2="133.77" y2="1043.76" gradientTransform="matrix(-1.7, -0.37, 0.31, -1.18, 38.37, 1293.89)" xlink:href="#linear-gradient"/><radialGradient id="radial-gradient-7" cx="-97.9" cy="-814.8" r="81.58" gradientTransform="matrix(-1.08, 0.05, 0.01, 0.27, 42.58, 244.14)" gradientUnits="userSpaceOnUse"><stop offset="0" stop-color="#efdd52"/><stop offset="1" stop-color="#f2e26d" stop-opacity="0"/></radialGradient><radialGradient id="radial-gradient-8" cx="-329.67" cy="383.66" r="81.58" gradientTransform="matrix(-0.57, 0.95, 0.99, 0.6, -476.41, 118.49)" xlink:href="#radial-gradient-7"/><linearGradient id="linear-gradient-4" x1="-5.44" y1="902.2" x2="-47.71" y2="796.13" gradientTransform="matrix(0.98, 0, 0, -0.98, 93.09, 921.08)" gradientUnits="userSpaceOnUse"><stop offset="0" stop-color="#ddbe0c"/><stop offset="1" stop-color="#ddbe0c" stop-opacity="0"/></linearGradient><linearGradient id="linear-gradient-5" x1="53.86" y1="913.3" x2="98.07" y2="809.71" xlink:href="#linear-gradient-4"/><linearGradient id="linear-gradient-6" x1="3.49" y1="896.57" x2="27.68" y2="833.64" xlink:href="#linear-gradient-4"/><linearGradient id="linear-gradient-7" x1="19.94" y1="912.41" x2="80.76" y2="911.35" xlink:href="#linear-gradient-4"/><radialGradient id="radial-gradient-9" cx="-34.35" cy="631.25" r="9.25" gradientTransform="translate(77 4024.88) rotate(180) scale(2.95 6.29)" gradientUnits="userSpaceOnUse"><stop offset="0" stop-color="#fff"/><stop offset="1" stop-color="#fff" stop-opacity="0"/></radialGradient><radialGradient id="radial-gradient-10" cx="-26.26" cy="634.59" r="9.25" gradientTransform="matrix(-2.56, -0.17, 0.39, -5.96, -184.37, 3842.17)" xlink:href="#radial-gradient-9"/><filter id="filter5531" name="filter5531"><feGaussianBlur result="feGaussianBlur5533" stdDeviation="1.22"/></filter><radialGradient id="radial-gradient-11" cx="111.16" cy="1035.71" r="11.67" gradientTransform="matrix(-2, -0.52, 0.26, -1.34, 58.48, 1506.81)" xlink:href="#radial-gradient-9"/><radialGradient id="radial-gradient-12" cx="81.49" cy="1040.24" r="11.67" gradientTransform="matrix(-2.05, -0.19, 0.04, -1.37, 285.5, 1486.13)" xlink:href="#radial-gradient-9"/><filter id="filter6435" x="-25.86" y="-8.49" width="1.39" height="1.09" name="filter6435"><feGaussianBlur result="feGaussianBlur6437" stdDeviation="0.7"/></filter><radialGradient id="radial-gradient-13" cx="-75.81" cy="612.1" r="5.62" gradientTransform="translate(-29.79 3785.64) rotate(180) scale(3.01 6.07)" gradientUnits="userSpaceOnUse"><stop offset="0" stop-color="#f9f1b8"/><stop offset="1" stop-color="#f9f1b8" stop-opacity="0"/></radialGradient><radialGradient id="radial-gradient-14" cx="-5.85" cy="860.68" r="10.51" gradientTransform="matrix(-1.27, 0.05, -0.64, -4.55, 651.14, 3991.76)" xlink:href="#linear-gradient-4"/><radialGradient id="radial-gradient-15" cx="-12.01" cy="851.65" r="10.51" gradientTransform="matrix(-1.52, 0.13, -1.07, -5.03, 1055.32, 4356.23)" xlink:href="#linear-gradient-4"/><linearGradient id="linear-gradient-8" x1="112.67" y1="875.46" x2="116.42" y2="875.46" gradientTransform="matrix(-3.29, -0.59, 0.74, -2.64, -234.63, 2506.66)" xlink:href="#linear-gradient"/><radialGradient id="radial-gradient-16" cx="51.7" cy="1501.39" r="106.59" gradientTransform="matrix(0.98, 0, 0, -0.31, 93.09, 653.13)" xlink:href="#radial-gradient-9"/><linearGradient id="linear-gradient-9" x1="113.15" y1="882.98" x2="116.9" y2="882.98" gradientTransform="matrix(-2.81, -0.56, 0.63, -2.49, -182.37, 2402.42)" xlink:href="#linear-gradient"/><radialGradient id="radial-gradient-17" cx="17.07" cy="1213.29" r="106.59" gradientTransform="matrix(1.35, -0.2, -0.06, -0.42, 106.34, 688.89)" gradientUnits="userSpaceOnUse"><stop offset="0" stop-opacity="0.33"/><stop offset="1" stop-opacity="0"/></radialGradient><radialGradient id="radial-gradient-18" cx="135.04" cy="1185.77" r="106.59" xlink:href="#radial-gradient-17"/><linearGradient id="linear-gradient-10" x1="520.38" y1="1421.8" x2="520.38" y2="1460.16" gradientTransform="matrix(1.73, 0, 0, -1.73, -656.23, 2578.54)" gradientUnits="userSpaceOnUse"><stop offset="0"/><stop offset="1" stop-color="#61625f"/></linearGradient><linearGradient id="linear-gradient-11" x1="539.59" y1="1421.8" x2="539.59" y2="1460.16" xlink:href="#linear-gradient-10"/><linearGradient id="linear-gradient-12" x1="559.13" y1="1421.8" x2="559.13" y2="1460.16" xlink:href="#linear-gradient-10"/><linearGradient id="linear-gradient-13" x1="578.53" y1="1421.8" x2="578.53" y2="1460.16" xlink:href="#linear-gradient-10"/><linearGradient id="linear-gradient-14" x1="600.5" y1="1421.8" x2="600.5" y2="1460.16" xlink:href="#linear-gradient-10"/><linearGradient id="linear-gradient-15" x1="625.6" y1="1421.8" x2="625.6" y2="1460.16" xlink:href="#linear-gradient-10"/><linearGradient id="linear-gradient-16" x1="645.41" y1="1421.8" x2="645.41" y2="1460.16" xlink:href="#linear-gradient-10"/></defs><title>foreman_logotype</title><g class="cls-2"><path class="cls-3" d="M32.26,134.88c-24.08,7.17,29.4,41.07,52,47.62,46,13.34,75.9,17.06,141.45-25.33,26.46-23.38-19.08-24.76-79.23-20.88C44.76,130.85,37.29,115.69,32.26,134.88Z" transform="translate(-25.66 -8.45)"/></g><path id="path5611" class="cls-4" d="M32.26,129c-24.08,7.17,29.4,41.07,52,47.62,46,13.34,75.9,17.06,141.45-25.33,26.46-23.38-19.08-24.76-79.23-20.88C44.76,125,37.29,109.83,32.26,129Z" transform="translate(-25.66 -8.45)"/><path id="path9655" class="cls-5" d="M127.34,18.22C89.18,17.4,68.05,26.9,54.92,45.38,42.24,63.23,31.92,104,33,128.59c27.64,43.51,160,42.72,183.47,3-10.23-35.92-7-66.36-23.22-87.14C178.22,25.24,151.48,17.13,127.34,18.22Z" transform="translate(-25.66 -8.45)"/><path id="path5782" class="cls-6" d="M214,113.22c3.32,0,3.61,17.09,3.61,17.09a10,10,0,0,1-6,2.65c-3.32,0-7.27-2.44-7.27-2.44s6.35-17.25,9.67-17.3Z" transform="translate(-25.66 -8.45)"/><path id="path5653" class="cls-7" d="M127.34,17c-38.16-.82-59.29,8.67-72.42,27.16C42.24,62,31.92,102.76,33,127.32c27.64,43.52,160,42.72,183.47,3.06-10.23-35.92-7-66.36-23.22-87.14C178.22,24,151.48,15.87,127.34,17Z" transform="translate(-25.66 -8.45)"/><g class="cls-8"><path id="path5547" class="cls-9" d="M117.48,12.75A59.58,59.58,0,0,0,85,22.12s0,0,0,0C71.63,26.64,62.08,34,54.92,44.12,42.24,62,31.91,102.75,33,127.31c27.64,43.52,160,42.72,183.47,3.05-10.23-35.91-7-66.35-23.23-87.12-8.69-11.11-21.26-18.49-35-22.56l-.21-.06c-6.33-2.41-22.16-7.81-38.27-7.81-.79,0-1.58-.06-2.35-.06ZM146.1,18l1.32.21Zm-44.34.3L99,18.7Z" transform="translate(-25.66 -8.45)"/></g><path id="path5437" class="cls-10" d="M118.9,95.74l-.48,11.61,23.11-1.7-1.05-11.27Z" transform="translate(-25.66 -8.45)"/><path id="path5448" class="cls-11" d="M176.09,90.05l-.65,10.74,19-1.7,1.89-10.4Z" transform="translate(-25.66 -8.45)"/><path id="path5602" class="cls-12" d="M94.59,12c-3.77-.26-6.73,11.2-6.73,11.2a13.6,13.6,0,0,0,6.44,2.19A30.53,30.53,0,0,0,103,24.2S98.37,12.22,94.59,12Z" transform="translate(-25.66 -8.45)"/><path id="path5598" class="cls-13" d="M141.33,8.5c-3.14-.92-8,9.78-8,9.78a10.82,10.82,0,0,0,5,3.28,23.09,23.09,0,0,0,7.55.41S144.46,9.42,141.33,8.5Z" transform="translate(-25.66 -8.45)"/><path id="path5786" class="cls-14" d="M119.82,95.91l21.75-1.38c-2.64-24.69-14-42.91-28-64.11C120,29,133,25,142.82,30.42c15.92,19.8,25.4,36.59,32.11,60.08L197,89.11c-12.33-28.9-16-49.17-35.91-67.32,0,0-20.58-9-41.3-9C69.49,10.8,41.36,68,38.34,116.05c-1,26.93-2.25,24.7,7.94,31.07,8.28,5.18,7.25-1.73,7.25-1.73-4.17-52.23,26.4-93.1,40.05-106.68,12.33,17.07,20.35,38.28,26.24,57.2Z" transform="translate(-25.66 -8.45)"/><path id="path5452" class="cls-15" d="M119.82,95.91l21.75-1.38c-2.64-24.69-14-42.91-28-64.11C120,29,133,25,142.82,30.42c15.92,19.8,25.4,36.59,32.11,60.08L197,89.11c-12.33-28.9-16-49.17-35.91-67.32,0,0-20.58-9-41.3-9C69.49,10.8,41.36,68,38.34,116.05c-1,26.93-2.25,24.7,7.94,31.07,8.28,5.18,7.25-1.73,7.25-1.73-4.17-52.23,26.4-93.1,40.05-106.68,12.33,17.07,20.35,38.28,26.24,57.2Z" transform="translate(-25.66 -8.45)"/><path id="path4622" class="cls-16" d="M93.68,38.87l-.06,7.49c-34.19,25-39.56,76.29-39.46,86.83C54.77,107.7,57.55,69.48,93.68,38.87Z" transform="translate(-25.66 -8.45)"/><path id="path5441" class="cls-17" d="M141.42,32.09C160.3,52,172,88.52,175.1,101.38l.87-5.54c-3.62-25.07-21.31-57.19-33.84-67.92Z" transform="translate(-25.66 -8.45)"/><path id="path4624" class="cls-18" d="M93.43,46.24c1.66,1.3,15.66,28.54,24.83,61.7l1.21-7.94c-13.76-42.31-17.52-48.94-26-61.15Z" transform="translate(-25.66 -8.45)"/><path id="rect5445" class="cls-19" d="M112.57,30.09c9.6-4.47,19.77-4.89,29.69-2.42v4.27c-20.12-1.6-26.12,3.44-26.59,2.18C115,33.12,113.26,31.09,112.57,30.09Z" transform="translate(-25.66 -8.45)"/><path id="path5466" class="cls-20" d="M204.71,131c-6.54-52.48-23.11-97.84-54.66-116.4C185.14,38.53,196.25,84.16,204.71,131Z" transform="translate(-25.66 -8.45)"/><path id="path5470" class="cls-21" d="M145.29,138.28c-2.44-50.09-14-94-40.18-113.35C134,49.56,140.84,93.43,145.29,138.28Z" transform="translate(-25.66 -8.45)"/><g class="cls-22"><path class="cls-23" d="M108.65,36.75c15.42,4,26.55,14.38,24.85,23.14-1.47,7.58-12.09,11.5-24.9,9.83-4.69-17.43-12.08-28.6-19.38-33.78C94.65,34.7,101.48,34.88,108.65,36.75Z" transform="translate(-25.66 -8.45)"/></g><g class="cls-22"><path class="cls-24" d="M158.6,26.71c15.87,1.46,28.53,9.9,28.27,18.82-.23,7.72-10.08,13.3-23,13.72C156.44,42.8,147.34,33,139.29,29.05A41.93,41.93,0,0,1,158.6,26.71Z" transform="translate(-25.66 -8.45)"/></g><g class="cls-25"><path class="cls-26" d="M176.77,30.52c23.55,18.05,27.68,53.33,33.83,86.81-9.7-31.52-18.38-64.71-33.83-86.81Z" transform="translate(-25.66 -8.45)"/></g><path id="path5590" class="cls-27" d="M125.63,124.75c-10.83-48.63-22.9-83.83-40.14-94.63,7.14,4,20.8,7.33,37.89,83l2.25,11.6Z" transform="translate(-25.66 -8.45)"/><path id="path5594" class="cls-28" d="M188.71,123.59c-16.22-53.53-33.06-92-54.53-103,8.86,4,25.53,6.91,51.06,90.23l3.47,12.79Z" transform="translate(-25.66 -8.45)"/><path id="path5663" class="cls-29" d="M48.34,115.92c-6-1.61-17.64,18.32-17.64,18.32,1.11,3.35,9,5.5,13.41,4.5,0,0,10.26-21.21,4.23-22.82Z" transform="translate(-25.66 -8.45)"/><path id="path5722" class="cls-30" d="M32.26,127.06c-24.08,7.18,29.4,41.08,52,47.63,46,13.34,75.9,17.05,141.45-25.34,26.46-23.38-19.08-24.75-79.23-20.87C44.76,123,37.29,107.88,32.26,127.06Z" transform="translate(-25.66 -8.45)"/><path id="path5667" class="cls-31" d="M58.55,123.16c-5.15-1.52-14.27,21.38-14.27,21.38a15.71,15.71,0,0,0,8,6.19c5.14,1.52,12.56-.11,12.56-.11s-1.17-25.94-6.32-27.46Z" transform="translate(-25.66 -8.45)"/><path id="path5740" class="cls-32" d="M32.26,129c-24.08,7.17,29.4,41.07,52,47.62,46,13.34,75.9,17.06,141.45-25.33,13.23-11.69,8.46-17.88-7.14-20.66" transform="translate(-25.66 -8.45)"/><path id="path5750" class="cls-33" d="M32.26,129c-24.08,7.17,29.4,41.07,52,47.62,46,13.34,75.9,17.06,141.45-25.33,13.23-11.69,8.46-17.88-7.14-20.66" transform="translate(-25.66 -8.45)"/><path id="path34993" class="cls-34" d="M256.14,63.25H238.33V82.4h17.81v7.93H238.33V117.5H230.4V55.32h25.74v7.93h0" transform="translate(-25.66 -8.45)"/><path id="path34995" class="cls-35" d="M276.48,117.42a14,14,0,0,1-7.17-1.61,14.59,14.59,0,0,1-4.05-3.29q-3.54-4.55-3.55-12.82V73q0-8.26,3.55-12.82a13.86,13.86,0,0,1,1.6-1.69,12.44,12.44,0,0,1,2.36-1.52,13.41,13.41,0,0,1,3.21-1.18,14.65,14.65,0,0,1,4.05-.51,13.65,13.65,0,0,1,7.17,1.61,14.59,14.59,0,0,1,4.05,3.29q3.54,4.54,3.55,12.82V99.7q0,8.26-3.55,12.82a14.59,14.59,0,0,1-4.05,3.29,13.65,13.65,0,0,1-7.17,1.61m0-54.17a14.06,14.06,0,0,0-2.11.17,4.52,4.52,0,0,0-2.19,1.09,6.43,6.43,0,0,0-1.86,2.87,17.82,17.82,0,0,0-.67,5.57V99.7a19,19,0,0,0,.67,5.74,7,7,0,0,0,1.86,2.86,4.83,4.83,0,0,0,2.19,1,15.52,15.52,0,0,0,2.11.17,14.94,14.94,0,0,0,2-.17,4.85,4.85,0,0,0,2.28-1,6.38,6.38,0,0,0,1.77-2.86,16.94,16.94,0,0,0,.76-5.74V73a15.86,15.86,0,0,0-.76-5.57,5.9,5.9,0,0,0-1.77-2.87,4.54,4.54,0,0,0-2.28-1.09,13.47,13.47,0,0,0-2-.17" transform="translate(-25.66 -8.45)"/><path id="path34997" class="cls-36" d="M320,86.87a14.54,14.54,0,0,1,3.46,5.23A18,18,0,0,1,324.68,99v18.4h-8V99q0-8.17-7.93-8.18h-5v26.58h-7.93V55.23h12.91q8,0,12.06,4.73,3.72,4.31,3.71,13T320.8,86l-.42.42a1.4,1.4,0,0,1-.42.42m-11.22-4.05c2.13,0,3.6-.25,4.38-.76a6.67,6.67,0,0,0,1.61-1.18c1.23-1.57,1.85-4.22,1.85-7.93a20,20,0,0,0-.5-5,6.47,6.47,0,0,0-1.52-3,4.33,4.33,0,0,0-2.45-1.43,14.58,14.58,0,0,0-3.37-.34h-5V82.82h5" transform="translate(-25.66 -8.45)"/><path id="path34999" class="cls-37" d="M356.66,63.25h-17.8V82.4h17.8v7.93h-17.8v19.24h17.8v7.93H330.93V55.32h25.73v7.93h0" transform="translate(-25.66 -8.45)"/><path id="path35001" class="cls-38" d="M370.17,87.63v29.79h-7.93V55.23h7L381.81,99,394.3,55.23h7v62.19h-7.93V87.63l-8.6,29.79h-6l-8.61-29.79h0" transform="translate(-25.66 -8.45)"/><path id="path35003" class="cls-39" d="M415.74,117.5h-8.18L421.9,55.32h6.33l14.51,62.18h-8.27l-4-17.38h-10.8l-4,17.38m9.37-40.58-3.55,15.27h7.09l-3.54-15.27" transform="translate(-25.66 -8.45)"/><path id="path35005" class="cls-40" d="M452.4,79.79v37.63h-7.93V55.23h6.67l15.18,37.63V55.23h8v62.19h-6.75L452.4,79.79h0" transform="translate(-25.66 -8.45)"/></svg>