<svg id="svg11224" xmlns="http://www.w3.org/2000/svg" xmlns:xlink="http://www.w3.org/1999/xlink" viewBox="0 0 208.22 183.11"><defs><style>.cls-1,.cls-30,.cls-32,.cls-33,.cls-5{fill:none;}.cls-2{opacity:0.54;filter:url(#filter5778);}.cls-2,.cls-20,.cls-21,.cls-22,.cls-9{isolation:isolate;}.cls-3{fill:#2e3436;}.cls-4{fill:url(#radial-gradient);}.cls-5,.cls-9{stroke-width:2px;}.cls-5{stroke:url(#radial-gradient-2);}.cls-6{fill:url(#linear-gradient);}.cls-7,.cls-9{fill:url(#radial-gradient-3);}.cls-8{clip-path:url(#clip-path);}.cls-9{stroke:#000;opacity:0.3;}.cls-10{fill:url(#radial-gradient-5);}.cls-11{fill:url(#radial-gradient-6);}.cls-12{fill:url(#linear-gradient-2);}.cls-13{fill:url(#linear-gradient-3);}.cls-14{fill:url(#radial-gradient-7);}.cls-15{fill:url(#radial-gradient-8);}.cls-16{fill:url(#linear-gradient-4);}.cls-17{fill:url(#linear-gradient-5);}.cls-18{fill:url(#linear-gradient-6);}.cls-19{fill:url(#linear-gradient-7);}.cls-20,.cls-21{opacity:0.87;}.cls-20{fill:url(#radial-gradient-9);}.cls-21{fill:url(#radial-gradient-10);}.cls-22{opacity:0.71;filter:url(#filter5531);}.cls-23{fill:url(#radial-gradient-11);}.cls-24{fill:url(#radial-gradient-12);}.cls-25{filter:url(#filter6435);}.cls-26{fill:url(#radial-gradient-13);}.cls-27{fill:url(#radial-gradient-14);}.cls-28{fill:url(#radial-gradient-15);}.cls-29{fill:url(#linear-gradient-8);}.cls-30{stroke:url(#radial-gradient-16);}.cls-31{fill:url(#linear-gradient-9);}.cls-32{stroke:url(#radial-gradient-17);}.cls-33{stroke:url(#radial-gradient-18);}</style><filter id="filter5778" name="filter5778"><feGaussianBlur result="feGaussianBlur5780" stdDeviation="2.76"/></filter><radialGradient id="radial-gradient" cx="38.1" cy="1670.61" r="106.62" gradientTransform="matrix(0.98, 0, 0, -0.29, 92.57, 645.11)" gradientUnits="userSpaceOnUse"><stop offset="0" stop-color="#f2da06"/><stop offset="0.45" stop-color="#fcee72"/><stop offset="1" stop-color="#f2da06"/></radialGradient><radialGradient id="radial-gradient-2" cx="250.2" cy="825.19" r="94.48" gradientTransform="matrix(0.75, -0.31, -0.29, -0.7, 214.07, 813.31)" gradientUnits="userSpaceOnUse"><stop offset="0" stop-color="#eeeeec"/><stop offset="1" stop-color="#eeeeec" stop-opacity="0"/></radialGradient><linearGradient id="linear-gradient" x1="62.02" y1="945.94" x2="65.77" y2="945.94" gradientTransform="matrix(1.75, 0.15, 0.18, -1.8, -87.55, 1814.9)" gradientUnits="userSpaceOnUse"><stop offset="0" stop-color="#edd60c"/><stop offset="1" stop-color="#ad9c08"/></linearGradient><radialGradient id="radial-gradient-3" cx="-47.97" cy="849.34" fy="821.9633052060842" r="93.98" gradientTransform="matrix(1.27, 0.24, 0.19, -0.98, 10.01, 928.55)" gradientUnits="userSpaceOnUse"><stop offset="0" stop-color="#e9d012"/><stop offset="0.46" stop-color="#efd840"/><stop offset="0.77" stop-color="#d2b828"/><stop offset="1" stop-color="#eacf4e"/></radialGradient><clipPath id="clip-path" transform="translate(-3.39 -8.45)"><path class="cls-1" d="M95.21,12.75a59.58,59.58,0,0,0-32.44,9.37s0,0,0,0C49.36,26.64,39.81,34,32.65,44.12,20,62,9.64,102.75,10.77,127.31c27.64,43.52,160,42.72,183.47,3.05C184,94.45,187.27,64,171,43.24c-8.7-11.11-21.26-18.49-35-22.56l-.21-.06c-6.33-2.41-22.16-7.81-38.27-7.81-.79,0-1.57-.06-2.35-.06ZM123.84,18l1.31.21C124.71,18.11,124.28,18,123.84,18Zm-44.35.3-2.77.43Z"/></clipPath><radialGradient id="radial-gradient-5" cx="58.15" cy="873.12" r="8.5" gradientTransform="matrix(-5.02, -1.34, 1.22, -3.14, -669.12, 2916.51)" gradientUnits="userSpaceOnUse"><stop offset="0" stop-color="#f5e789"/><stop offset="1" stop-color="#eed73f" stop-opacity="0"/></radialGradient><radialGradient id="radial-gradient-6" cx="58.06" cy="872.17" r="8.5" gradientTransform="matrix(-5.02, -1.34, 1.22, -3.14, -612.1, 2909.95)" xlink:href="#radial-gradient-5"/><linearGradient id="linear-gradient-2" x1="65.48" y1="1046.36" x2="69.23" y2="1046.36" gradientTransform="matrix(-2.02, -0.02, 0.07, -1.22, 130.11, 1293.23)" xlink:href="#linear-gradient"/><linearGradient id="linear-gradient-3" x1="107.76" y1="1043.76" x2="111.51" y2="1043.76" gradientTransform="matrix(-1.7, -0.37, 0.31, -1.18, -21.84, 1285.56)" xlink:href="#linear-gradient"/><radialGradient id="radial-gradient-7" cx="-120.17" cy="-814.8" r="81.58" gradientTransform="matrix(-1.08, 0.05, 0.01, 0.27, -3.67, 245.25)" gradientUnits="userSpaceOnUse"><stop offset="0" stop-color="#efdd52"/><stop offset="1" stop-color="#f2e26d" stop-opacity="0"/></radialGradient><radialGradient id="radial-gradient-8" cx="-351.94" cy="383.66" r="81.58" gradientTransform="matrix(-0.57, 0.95, 0.99, 0.6, -511.42, 139.66)" xlink:href="#radial-gradient-7"/><linearGradient id="linear-gradient-4" x1="-27.71" y1="902.2" x2="-69.98" y2="796.13" gradientTransform="matrix(0.98, 0, 0, -0.98, 92.57, 921.08)" gradientUnits="userSpaceOnUse"><stop offset="0" stop-color="#ddbe0c"/><stop offset="1" stop-color="#ddbe0c" stop-opacity="0"/></linearGradient><linearGradient id="linear-gradient-5" x1="31.59" y1="913.3" x2="75.8" y2="809.71" xlink:href="#linear-gradient-4"/><linearGradient id="linear-gradient-6" x1="-18.78" y1="896.57" x2="5.41" y2="833.64" xlink:href="#linear-gradient-4"/><linearGradient id="linear-gradient-7" x1="-2.32" y1="912.41" x2="58.49" y2="911.35" xlink:href="#linear-gradient-4"/><radialGradient id="radial-gradient-9" cx="-56.61" cy="631.25" r="9.25" gradientTransform="translate(-11.07 4024.88) rotate(180) scale(2.95 6.29)" gradientUnits="userSpaceOnUse"><stop offset="0" stop-color="#fff"/><stop offset="1" stop-color="#fff" stop-opacity="0"/></radialGradient><radialGradient id="radial-gradient-10" cx="-48.53" cy="634.59" r="9.25" gradientTransform="matrix(-2.56, -0.17, 0.39, -5.96, -263.59, 3838.49)" xlink:href="#radial-gradient-9"/><filter id="filter5531" name="filter5531"><feGaussianBlur result="feGaussianBlur5533" stdDeviation="1.22"/></filter><radialGradient id="radial-gradient-11" cx="88.9" cy="1035.71" r="11.67" gradientTransform="matrix(-2, -0.52, 0.26, -1.34, -8.23, 1495.25)" xlink:href="#radial-gradient-9"/><radialGradient id="radial-gradient-12" cx="59.22" cy="1040.24" r="11.67" gradientTransform="matrix(-2.05, -0.19, 0.04, -1.37, 217.51, 1481.91)" xlink:href="#radial-gradient-9"/><filter id="filter6435" x="-3.59" y="-8.49" width="1.39" height="1.09" name="filter6435"><feGaussianBlur result="feGaussianBlur6437" stdDeviation="0.7"/></filter><radialGradient id="radial-gradient-13" cx="-98.08" cy="612.1" r="5.62" gradientTransform="translate(-119.02 3785.64) rotate(180) scale(3.01 6.07)" gradientUnits="userSpaceOnUse"><stop offset="0" stop-color="#f9f1b8"/><stop offset="1" stop-color="#f9f1b8" stop-opacity="0"/></radialGradient><radialGradient id="radial-gradient-14" cx="-28.12" cy="860.68" r="10.51" gradientTransform="matrix(-1.27, 0.05, -0.64, -4.55, 600.68, 3992.81)" xlink:href="#linear-gradient-4"/><radialGradient id="radial-gradient-15" cx="-34.28" cy="851.65" r="10.51" gradientTransform="matrix(-1.52, 0.13, -1.07, -5.03, 999.16, 4359.11)" xlink:href="#linear-gradient-4"/><linearGradient id="linear-gradient-8" x1="90.41" y1="875.46" x2="94.16" y2="875.46" gradientTransform="matrix(-3.29, -0.59, 0.74, -2.64, -330.1, 2493.43)" xlink:href="#linear-gradient"/><radialGradient id="radial-gradient-16" cx="29.43" cy="1501.39" r="106.59" gradientTransform="matrix(0.98, 0, 0, -0.31, 92.57, 653.13)" xlink:href="#radial-gradient-9"/><linearGradient id="linear-gradient-9" x1="90.88" y1="882.98" x2="94.63" y2="882.98" gradientTransform="matrix(-2.81, -0.56, 0.63, -2.49, -267.18, 2389.94)" xlink:href="#linear-gradient"/><radialGradient id="radial-gradient-17" cx="-5.19" cy="1213.29" r="106.59" gradientTransform="matrix(1.35, -0.2, -0.06, -0.42, 114.18, 684.35)" gradientUnits="userSpaceOnUse"><stop offset="0" stop-opacity="0.33"/><stop offset="1" stop-opacity="0"/></radialGradient><radialGradient id="radial-gradient-18" cx="112.77" cy="1185.77" r="106.59" xlink:href="#radial-gradient-17"/></defs><title>foreman_helmet</title><g class="cls-2"><path class="cls-3" d="M10,134.88c-24.08,7.17,29.4,41.07,52,47.62,46,13.34,75.91,17.06,141.45-25.33,26.47-23.38-19.08-24.76-79.23-20.88C22.49,130.85,15,115.69,10,134.88Z" transform="translate(-3.39 -8.45)"/></g><path id="path5611" class="cls-4" d="M10,129c-24.08,7.17,29.4,41.07,52,47.62,46,13.34,75.91,17.06,141.45-25.33,26.47-23.38-19.08-24.76-79.23-20.88C22.49,125,15,109.83,10,129Z" transform="translate(-3.39 -8.45)"/><path id="path9655" class="cls-5" d="M105.07,18.22C66.91,17.4,45.78,26.9,32.66,45.38,20,63.23,9.65,104,10.77,128.59c27.64,43.51,160,42.72,183.47,3C184,95.72,187.28,65.28,171,44.5,156,25.24,129.22,17.13,105.07,18.22Z" transform="translate(-3.39 -8.45)"/><path id="path5782" class="cls-6" d="M191.75,113.22c3.32,0,3.62,17.09,3.62,17.09a10.07,10.07,0,0,1-6,2.65c-3.33,0-7.28-2.44-7.28-2.44s6.35-17.25,9.67-17.3Z" transform="translate(-3.39 -8.45)"/><path id="path5653" class="cls-7" d="M105.07,17c-38.16-.82-59.29,8.67-72.41,27.16C20,62,9.65,102.76,10.77,127.32c27.64,43.52,160,42.72,183.47,3.06C184,94.46,187.28,64,171,43.24,156,24,129.22,15.87,105.07,17Z" transform="translate(-3.39 -8.45)"/><g class="cls-8"><path id="path5547" class="cls-9" d="M95.21,12.75a59.58,59.58,0,0,0-32.44,9.37s0,0,0,0C49.36,26.64,39.81,34,32.65,44.12,20,62,9.64,102.75,10.77,127.31c27.64,43.52,160,42.72,183.47,3.05C184,94.45,187.27,64,171,43.24c-8.7-11.11-21.26-18.49-35-22.56l-.21-.06c-6.33-2.41-22.16-7.81-38.27-7.81-.79,0-1.57-.06-2.35-.06ZM123.84,18l1.31.21C124.71,18.11,124.28,18,123.84,18Zm-44.35.3-2.77.43Z" transform="translate(-3.39 -8.45)"/></g><path id="path5437" class="cls-10" d="M96.64,95.74l-.49,11.61,23.11-1.7-1.05-11.27Z" transform="translate(-3.39 -8.45)"/><path id="path5448" class="cls-11" d="M153.82,90.05l-.65,10.74,19-1.7L174,88.69Z" transform="translate(-3.39 -8.45)"/><path id="path5602" class="cls-12" d="M72.33,12c-3.78-.26-6.74,11.2-6.74,11.2A13.61,13.61,0,0,0,72,25.35,30.5,30.5,0,0,0,80.7,24.2S76.1,12.22,72.33,12Z" transform="translate(-3.39 -8.45)"/><path id="path5598" class="cls-13" d="M119.06,8.5c-3.14-.92-8,9.78-8,9.78a10.76,10.76,0,0,0,5,3.28,23.09,23.09,0,0,0,7.55.41S122.2,9.42,119.06,8.5Z" transform="translate(-3.39 -8.45)"/><path id="path5786" class="cls-14" d="M97.55,95.91l21.75-1.38c-2.64-24.69-14-42.91-28-64.11,6.41-1.45,19.37-5.42,29.22,0C136.47,50.22,146,67,152.67,90.5l22.09-1.39c-12.32-28.9-16-49.17-35.91-67.32,0,0-20.58-9-41.3-9C47.22,10.8,19.1,68,16.07,116.05c-1,26.93-2.24,24.7,7.94,31.07,8.29,5.18,7.25-1.73,7.25-1.73C27.1,93.16,57.66,52.29,71.31,38.71,83.64,55.78,91.66,77,97.55,95.91Z" transform="translate(-3.39 -8.45)"/><path id="path5452" class="cls-15" d="M97.55,95.91l21.75-1.38c-2.64-24.69-14-42.91-28-64.11,6.41-1.45,19.37-5.42,29.22,0C136.47,50.22,146,67,152.67,90.5l22.09-1.39c-12.32-28.9-16-49.17-35.91-67.32,0,0-20.58-9-41.3-9C47.22,10.8,19.1,68,16.07,116.05c-1,26.93-2.24,24.7,7.94,31.07,8.29,5.18,7.25-1.73,7.25-1.73C27.1,93.16,57.66,52.29,71.31,38.71,83.64,55.78,91.66,77,97.55,95.91Z" transform="translate(-3.39 -8.45)"/><path id="path4622" class="cls-16" d="M71.41,38.87l0,7.49c-34.19,25-39.57,76.29-39.46,86.83C32.51,107.7,35.28,69.48,71.41,38.87Z" transform="translate(-3.39 -8.45)"/><path id="path5441" class="cls-17" d="M119.15,32.09C138,52,149.73,88.52,152.84,101.38l.86-5.54c-3.62-25.07-21.31-57.19-33.84-67.92Z" transform="translate(-3.39 -8.45)"/><path id="path4624" class="cls-18" d="M71.16,46.24c1.67,1.3,15.66,28.54,24.83,61.7L97.21,100c-13.77-42.31-17.53-48.94-26-61.15Z" transform="translate(-3.39 -8.45)"/><path id="rect5445" class="cls-19" d="M90.3,30.09c9.6-4.47,19.78-4.89,29.69-2.42v4.27c-20.11-1.6-26.12,3.44-26.59,2.18C92.72,33.12,91,31.09,90.3,30.09Z" transform="translate(-3.39 -8.45)"/><path id="path5466" class="cls-20" d="M182.44,131c-6.53-52.48-23.11-97.84-54.66-116.4C162.88,38.53,174,84.16,182.44,131Z" transform="translate(-3.39 -8.45)"/><path id="path5470" class="cls-21" d="M123,138.28c-2.44-50.09-14-94-40.18-113.35C111.75,49.56,118.57,93.43,123,138.28Z" transform="translate(-3.39 -8.45)"/><g class="cls-22"><path class="cls-23" d="M86.38,36.75c15.42,4,26.56,14.38,24.85,23.14-1.47,7.58-12.09,11.5-24.9,9.83C81.64,52.29,74.25,41.12,67,35.94A41.89,41.89,0,0,1,86.38,36.75Z" transform="translate(-3.39 -8.45)"/></g><g class="cls-22"><path class="cls-24" d="M136.33,26.71c15.87,1.46,28.53,9.9,28.27,18.82-.23,7.72-10.07,13.3-23,13.72C134.17,42.8,125.07,33,117,29.05A41.86,41.86,0,0,1,136.33,26.71Z" transform="translate(-3.39 -8.45)"/></g><g class="cls-25"><path class="cls-26" d="M154.5,30.52c23.55,18.05,27.68,53.33,33.83,86.81C178.64,85.81,170,52.62,154.5,30.52Z" transform="translate(-3.39 -8.45)"/></g><path id="path5590" class="cls-27" d="M103.36,124.75C92.53,76.12,80.46,40.92,63.22,30.12c7.14,4,20.8,7.33,37.89,83l2.25,11.6Z" transform="translate(-3.39 -8.45)"/><path id="path5594" class="cls-28" d="M166.44,123.59c-16.22-53.53-33.06-92-54.52-103,8.85,4,25.52,6.91,51.05,90.23l3.47,12.79Z" transform="translate(-3.39 -8.45)"/><path id="path5663" class="cls-29" d="M26.07,115.92c-6-1.61-17.64,18.32-17.64,18.32,1.11,3.35,9,5.5,13.42,4.5,0,0,10.25-21.21,4.22-22.82Z" transform="translate(-3.39 -8.45)"/><path id="path5722" class="cls-30" d="M10,127.06c-24.08,7.18,29.4,41.08,52,47.63,46,13.34,75.91,17.05,141.45-25.34,26.47-23.38-19.08-24.75-79.23-20.87C22.49,123,15,107.88,10,127.06Z" transform="translate(-3.39 -8.45)"/><path id="path5667" class="cls-31" d="M36.28,123.16C31.13,121.64,22,144.54,22,144.54a15.66,15.66,0,0,0,8,6.19c5.15,1.52,12.57-.11,12.57-.11s-1.18-25.94-6.33-27.46Z" transform="translate(-3.39 -8.45)"/><path id="path5740" class="cls-32" d="M10,129c-24.08,7.17,29.4,41.07,52,47.62,46,13.34,75.91,17.06,141.45-25.33,13.23-11.69,8.46-17.88-7.13-20.66" transform="translate(-3.39 -8.45)"/><path id="path5750" class="cls-33" d="M10,129c-24.08,7.17,29.4,41.07,52,47.62,46,13.34,75.91,17.06,141.45-25.33,13.23-11.69,8.46-17.88-7.13-20.66" transform="translate(-3.39 -8.45)"/></svg>